<?xml version="1.0" encoding="utf-8"?>
<!-- Generator: Adobe Illustrator 28.1.0, SVG Export Plug-In . SVG Version: 6.00 Build 0)  -->
<svg version="1.1" id="Camada_1" xmlns="http://www.w3.org/2000/svg" xmlns:xlink="http://www.w3.org/1999/xlink" x="0px" y="0px"
	 viewBox="0 0 393.18 238.59" style="enable-background:new 0 0 393.18 238.59;" xml:space="preserve">
<style type="text/css">
	.st0{fill:#1C1570;}
	.st1{fill:#0DA2D4;}
	.st2{fill:none;stroke:#0DA2D4;stroke-miterlimit:10;}
	.st3{fill:none;}
	.st4{fill:none;stroke:#000000;stroke-miterlimit:10;}
</style>
<g>
	<path class="st0" d="M321.52,65.67C317.54,47.12,310.3,29,297.8,14.64c0,0,2.71,0.34,2.71,0.34c-7.27,5.64-12.42,13.68-13.35,22.84
		c-0.83,6.76,0.11,13.9,1.54,20.63c1.43,6.59,4.01,14.04,2.67,20.92c-0.22,1.18-0.51,2.9-0.94,4.01
		c-4.72,15.76-22.22,22.91-37.49,21.69c-15.2-1.37-29.49-8.08-42.28-16.06c-20.45-12.93-36.84-31.48-57.71-43.73
		c-18.02-10.95-38.38-18.25-59.46-19.65c0,0-3.44-0.1-3.44-0.1s-3.45,0.08-3.45,0.08c-32.08,1.17-65.37,23.95-67.81,57.85
		c-1.46,18.9,4.84,39.34,22.09,49.31c-18.7-8.69-26.59-29.92-26.1-49.54c0.73-37.12,36.41-63.45,71.39-65.43
		c35.3-1.54,68.91,15.04,95.53,37.08c10.91,9.2,21.62,19.11,33.66,26.8c7.86,5.04,16.19,9.34,25.03,12.31
		c8.32,3.01,17.58,4.35,26.17,1.95c5.2-1.43,9.91-4.06,13.38-8.04c1.98-2.35,3.5-5.19,4.26-8.18c0.53-2.04,0.84-4.02,0.71-6.16
		c-0.19-5.38-2.32-12.16-2.99-17.57c-1.53-11.19-1.12-23.67,5.49-33.35c2.85-4.35,6.63-7.93,10.74-10.82
		c0.84-0.66,2.07-0.51,2.72,0.34C312.84,27.52,319.19,46.5,321.52,65.67L321.52,65.67z"/>
</g>
<g>
	<g>
		<path class="st0" d="M360.68,44.04c6.13,7.34,6.71,18.39,2.4,26.83c-4.03,8.38-11.79,14.85-19.79,18.89
			c-5.34,2.67-10.97,4.57-16.93,5.29c8.26-7.76,17.42-13.99,24.67-22.22C358.73,64.38,361.43,55.43,360.68,44.04L360.68,44.04z"/>
	</g>
	<g>
		<path class="st0" d="M360.68,44.04c-1.41,0.71,0.17-2.78,0.07-3.24c0.02-0.21-0.03-0.44-0.13-0.3c-0.13,0.12,0.06,0.75,0.28,0.9
			c-2.46-0.78-5.29-1.39-7.64-1.26c-11.63,0.52-20.9,13.56-29.82,20.75c1.13-10.02,6.33-19.06,14.87-24.84
			c6.95-4.68,16.77-4.95,23.03,1.03c0.7,0.72,1.42,1.35,2.03,2.16c1.14,2.18-1.24,3.5-2.63,4.47c-0.11,0.07-0.2,0.19-0.25,0.19
			C360.34,43.88,360.54,44.03,360.68,44.04L360.68,44.04z"/>
	</g>
</g>
<g>
	<path class="st1" d="M37.3,131.81c19.9-22.18,48.58-40.15,77.64-47.15c21.6-4.68,44.36-3.52,65.61,2.26
		c2.59,0.59,7.03,2.23,9.59,3.01c2.95,1.22,6.46,2.44,9.33,3.8c4.72,2.18,10.57,5.12,15.33,7.14c4.26,1.67,8.57,3.27,12.95,4.53
		c0.62,0.22,1.97,0.6,2.63,0.74c33.84,9.36,69.8-0.26,100.29-15.92c13.19-6.79,25.88-14.81,37.88-23.93l0.63,0.64
		c-22.82,25.4-54.78,44.89-88.75,50.69c-11.56,1.75-23.61,1.9-35.17-0.01c-15.55-2.22-30.32-8.68-43.01-17.12
		c-3.17-1.9-6.28-3.96-9.66-5.48c-0.8-0.4-2.97-1.47-3.75-1.86c-0.94-0.42-5.47-2.13-6.49-2.54c-1.49-0.63-3.76-1.2-5.32-1.67
		c-10.68-3.2-22.07-3.96-33.14-2.9c0,0-5.51,0.74-5.51,0.74S137,86.96,137,86.96c-1.98,0.38-4.82,0.96-6.8,1.34
		c-18.83,4.53-37.03,11.46-54.2,20.48c-13.16,6.87-25.83,14.87-38.08,23.68C37.92,132.46,37.3,131.81,37.3,131.81L37.3,131.81z"/>
</g>
<path class="st2" d="M53.65-140.47"/>
<path class="st2" d="M48-153.18"/>
<g>
	<path class="st3" d="M189.18-114.35"/>
</g>
<path class="st2" d="M26.19-158.54"/>
<g>
	<path class="st1" d="M43.59,125.25C79,103.9,141.1,79.21,177.37,109.87c4.7,3.97,8.44,8.92,11.71,14.08
		c9.17,14.14,28.02,14.6,43.26,11.51c17.58-3.6,34.47-10.8,50.59-18.73c31.91-15.94,61.94-35.4,91.19-55.85
		c-36.39,31.91-115,89.46-164.65,83.57c-8.42-1.09-16.88-4.81-22.8-11.11c-2.85-2.86-4.87-6.52-7.17-9.79
		c-6.29-8.89-15.36-15.35-25.85-18.55C119.81,94.85,74.69,110.89,43.59,125.25L43.59,125.25z"/>
</g>
<g>
	<path d="M107.28,121.29c-0.34,0.75-0.74,1.57-1.22,2.45c-0.72,1.32-1.68,2.47-2.88,3.46c-1.2,0.99-2.5,1.85-3.91,2.59
		c-1.41,0.74-2.85,1.36-4.32,1.88c-1.47,0.52-2.85,0.95-4.12,1.28c0.35,1.54,0.68,3.08,0.97,4.61c0.29,1.53,0.51,3.08,0.65,4.64
		c0.05,0.61-0.09,1.08-0.43,1.41c-0.34,0.34-0.74,0.52-1.21,0.57c-0.43,0.04-0.84-0.08-1.24-0.35c-0.4-0.27-0.62-0.71-0.67-1.32
		c-0.14-1.56-0.28-3.11-0.41-4.64c-0.14-1.53-0.26-3.08-0.37-4.64c-0.29-0.13-0.53-0.35-0.71-0.64c-0.18-0.29-0.28-0.59-0.31-0.91
		c-0.03-0.32,0.01-0.63,0.12-0.95c0.11-0.31,0.33-0.57,0.65-0.76c-0.06-0.67-0.13-1.51-0.2-2.54s-0.16-2.06-0.25-3.11
		c-0.1-1.08-0.19-2.12-0.28-3.11c-0.09-1.02-0.17-1.87-0.23-2.53c-0.03-0.29,0.04-0.5,0.2-0.65c0.16-0.14,0.33-0.22,0.51-0.24
		c0.18-0.02,0.37,0.03,0.55,0.14c0.18,0.11,0.28,0.31,0.31,0.6c0.06,0.64,0.14,1.43,0.26,2.38c0.12,0.95,0.24,1.96,0.38,3
		c0.14,1.05,0.28,2.06,0.43,3.02c0.15,0.97,0.3,1.75,0.44,2.35c1.27-0.34,2.57-0.73,3.89-1.19c1.32-0.46,2.56-0.99,3.72-1.61
		c1.15-0.62,2.2-1.3,3.14-2.06c0.94-0.76,1.68-1.61,2.21-2.56c0.11-0.2,0.25-0.42,0.43-0.66c0.18-0.24,0.35-0.5,0.51-0.77
		s0.29-0.55,0.39-0.83c0.1-0.28,0.14-0.55,0.11-0.81c-0.07-0.83-0.49-1.43-1.25-1.82c-0.76-0.38-1.64-0.62-2.62-0.73
		c-0.99-0.1-1.98-0.13-2.98-0.07c-1,0.06-1.8,0.11-2.38,0.16c-1.02,0.09-1.87,0.25-2.56,0.49s-1.54,0.45-2.55,0.64
		c-1.07,0.22-2.14,0.37-3.22,0.43c-1.08,0.06-2.1,0.27-3.06,0.61c-0.15,0.04-0.28,0.03-0.4-0.04c-0.12-0.07-0.2-0.17-0.26-0.29
		s-0.06-0.25-0.01-0.38c0.05-0.13,0.15-0.24,0.3-0.32c0.51-0.17,1.01-0.39,1.5-0.64c0.49-0.25,0.98-0.51,1.49-0.78
		c0.5-0.27,1.02-0.51,1.54-0.74c0.52-0.22,1.06-0.39,1.61-0.5c0.52-0.11,0.99-0.22,1.41-0.34c0.42-0.12,0.84-0.24,1.25-0.35
		s0.83-0.22,1.27-0.31s0.92-0.15,1.45-0.2c0.55-0.05,1.24-0.07,2.06-0.06c0.82,0.01,1.69,0.06,2.59,0.15
		c0.91,0.1,1.83,0.25,2.76,0.48c0.93,0.22,1.78,0.52,2.55,0.91c0.76,0.38,1.39,0.86,1.89,1.42c0.5,0.57,0.78,1.23,0.85,2
		C107.74,119.62,107.62,120.54,107.28,121.29z"/>
	<path d="M138.08,145.78c-1.05-0.03-1.93-0.12-2.66-0.26c-0.91-0.17-1.7-0.42-2.38-0.74c-0.68-0.32-1.32-0.7-1.93-1.12
		c-0.61-0.42-1.22-0.88-1.82-1.37c-0.6-0.49-1.25-0.96-1.95-1.42c-0.47-0.35-0.99-0.85-1.58-1.5s-1.25-1.24-2-1.77
		c-0.5-0.36-0.96-0.74-1.39-1.14c-0.43-0.41-0.84-0.73-1.23-0.96c-0.16,0.03-0.33,0.06-0.49,0.08c-0.16,0.02-0.32,0.05-0.49,0.08
		c-0.52,0.1-0.94,0-1.27-0.29c-0.32-0.29-0.52-0.63-0.58-1.04c-0.07-0.4,0-0.8,0.2-1.18c0.2-0.38,0.56-0.63,1.08-0.72
		c1.01-0.2,2.19-0.39,3.53-0.58c1.34-0.19,2.72-0.42,4.14-0.71c1.42-0.29,2.83-0.66,4.22-1.11c1.39-0.45,2.65-1.03,3.77-1.73
		s2.05-1.56,2.77-2.58c0.73-1.02,1.14-2.23,1.25-3.65c0.04-0.55-0.04-1.1-0.23-1.66c-0.19-0.56-0.46-1.07-0.79-1.54
		c-0.33-0.47-0.74-0.87-1.21-1.2c-0.47-0.33-0.95-0.55-1.44-0.64c-1.82-0.34-3.52-0.37-5.1-0.08s-3.04,0.83-4.38,1.62
		c-1.34,0.79-2.58,1.8-3.71,3.04c-1.13,1.24-2.14,2.63-3.03,4.19c-0.3,1.08-0.58,2.16-0.85,3.24c-0.27,1.07-0.5,2.16-0.71,3.26
		c-0.14,0.72-0.32,1.49-0.55,2.29c-0.23,0.8-0.46,1.61-0.7,2.41c-0.23,0.8-0.43,1.6-0.6,2.4c-0.17,0.8-0.24,1.57-0.22,2.33
		c0.02,0.26-0.06,0.46-0.23,0.59c-0.17,0.13-0.35,0.2-0.55,0.19c-0.19,0-0.38-0.07-0.55-0.2c-0.17-0.13-0.25-0.32-0.23-0.58
		c-0.01-1.66,0.04-3.33,0.16-5c0.12-1.67,0.33-3.32,0.64-4.96c0.32-1.7,0.6-3.38,0.83-5.05c0.23-1.66,0.64-3.32,1.2-4.97
		c0.15-0.46,0.4-0.78,0.74-0.96c0.34-0.18,0.69-0.24,1.04-0.2c0.35,0.05,0.67,0.19,0.96,0.43c0.29,0.24,0.48,0.54,0.57,0.91
		c0.92-1.36,1.9-2.56,2.94-3.6c1.04-1.04,2.19-1.88,3.44-2.5c1.25-0.63,2.64-1.03,4.17-1.22c1.53-0.18,3.23-0.1,5.11,0.26
		c0.79,0.15,1.57,0.46,2.35,0.93c0.78,0.47,1.46,1.04,2.06,1.71c0.6,0.67,1.08,1.41,1.44,2.23c0.36,0.82,0.51,1.66,0.44,2.53
		c-0.12,1.48-0.48,2.78-1.07,3.93c-0.59,1.14-1.36,2.15-2.29,3.01c-0.93,0.87-1.98,1.61-3.13,2.24c-1.16,0.63-2.34,1.17-3.56,1.62
		c-1.22,0.45-2.4,0.82-3.55,1.09c-1.15,0.27-2.2,0.48-3.14,0.63c-0.19,0.03-0.38,0.06-0.56,0.09c-0.18,0.03-0.37,0.06-0.56,0.09
		c0.14,0.09,0.27,0.17,0.4,0.25c0.13,0.07,0.26,0.16,0.4,0.25c0.72,0.53,1.44,0.97,2.18,1.34c0.73,0.37,1.33,0.71,1.81,1.02
		c0.56,0.37,1.09,0.84,1.59,1.42c0.5,0.58,1.02,1.15,1.54,1.71c0.52,0.55,1.07,1.06,1.63,1.5c0.56,0.45,1.17,0.73,1.84,0.86
		c0.61,0.12,1.33,0.19,2.18,0.21c0.84,0.03,1.56,0,2.14-0.08c0.58-0.08,1.06-0.04,1.43,0.15c0.37,0.18,0.6,0.42,0.69,0.69
		s0.03,0.55-0.18,0.82c-0.21,0.27-0.6,0.45-1.19,0.54C140.07,145.76,139.12,145.81,138.08,145.78z"/>
	<path d="M175.84,151.81c-0.29,1.48-0.63,3-1.03,4.58s-0.88,3.29-1.43,5.13c-0.05,0.16-0.13,0.27-0.25,0.33
		c-0.12,0.06-0.24,0.08-0.37,0.05c-0.12-0.03-0.23-0.1-0.3-0.22c-0.08-0.11-0.09-0.26-0.03-0.45c0.4-1.42,0.73-2.96,0.98-4.64
		c0.25-1.67,0.45-3.43,0.59-5.28c-0.83-0.15-1.63-0.26-2.41-0.35c-0.78-0.08-1.55-0.17-2.31-0.24c-1.59-0.15-3.18-0.19-4.77-0.1
		c-1.58,0.09-3.21,0.05-4.87-0.1c-0.57-0.05-0.97-0.26-1.21-0.64c-0.24-0.38-0.33-0.78-0.28-1.21c0.05-0.42,0.23-0.81,0.55-1.15
		s0.75-0.47,1.31-0.39c1.66,0.15,3.28,0.33,4.83,0.52c1.56,0.19,3.13,0.38,4.71,0.56c1.62,0.17,3.13,0.49,4.51,0.97
		c0.14-2.97,0.14-5.92,0.02-8.86c-0.12-2.94-0.32-5.62-0.57-8.04c-0.06-0.28-0.01-0.58,0.16-0.89c-0.97-0.22-2.08-0.15-3.34,0.22
		c-1.26,0.37-2.51,0.87-3.75,1.49c-1.24,0.63-2.41,1.3-3.5,2.01c-1.09,0.71-1.94,1.3-2.54,1.78c-2.38,1.79-4.55,3.7-6.52,5.75
		c-1.97,2.05-3.94,4.33-5.9,6.85c-0.31,0.38-0.65,0.58-1.04,0.59c-0.39,0.01-0.73-0.1-1.03-0.33c-0.3-0.23-0.48-0.54-0.56-0.92
		c-0.08-0.38,0.05-0.78,0.37-1.19c2.06-2.64,4.14-4.99,6.24-7.05c2.1-2.06,4.42-4.03,6.95-5.91c0.47-0.37,1.11-0.77,1.9-1.22
		c0.8-0.45,1.68-0.88,2.65-1.29c0.97-0.41,1.98-0.8,3.05-1.16c1.06-0.36,2.11-0.63,3.13-0.82c1.02-0.18,1.99-0.26,2.9-0.23
		c0.91,0.03,1.71,0.22,2.39,0.58l0.08,0.04c0.32-0.01,0.6,0.09,0.83,0.3c0.24,0.21,0.38,0.54,0.43,0.96
		c0.18,1.83,0.33,3.54,0.44,5.12c0.11,1.58,0.16,3.09,0.14,4.55c-0.02,1.46-0.09,2.87-0.23,4.25c-0.13,1.38-0.32,2.78-0.55,4.22
		c0.97,0.41,1.98,0.88,3.02,1.43c0.22,0.11,0.34,0.28,0.37,0.49c0.03,0.21,0,0.4-0.09,0.57s-0.23,0.3-0.42,0.4
		c-0.19,0.1-0.4,0.09-0.62-0.03C177.63,152.43,176.75,152.07,175.84,151.81z"/>
	<path d="M178.85,167.6c-0.49-0.03-0.89-0.19-1.2-0.5c-0.31-0.31-0.5-0.71-0.56-1.2c-0.06-0.49,0.12-0.95,0.54-1.4
		c0.76-0.84,1.63-1.81,2.61-2.92c0.98-1.11,1.95-2.22,2.9-3.34c0.95-1.12,1.84-2.17,2.67-3.17c0.83-1,1.49-1.78,1.97-2.35
		c0.48-0.57,0.74-0.87,0.77-0.93l1.07,1.31c-0.04,0.05-0.26,0.42-0.66,1.09c-0.4,0.67-0.97,1.59-1.71,2.75s-1.51,2.36-2.31,3.59
		c-0.8,1.23-1.63,2.43-2.48,3.6c-0.85,1.16-1.6,2.11-2.24,2.83C179.79,167.41,179.33,167.62,178.85,167.6z M194.31,148.25
		c-0.44,0.42-1,0.62-1.7,0.61c-0.62-0.03-1.15-0.2-1.61-0.52c-0.74-0.5-1.19-1.16-1.35-1.97c-0.16-0.81,0.02-1.59,0.54-2.36
		c0.58-0.84,1.26-1.22,2.04-1.14c0.78,0.09,1.47,0.43,2.07,1.03l0.11,0.08c0.28,0.08,0.54,0.21,0.78,0.38
		c0.23,0.18,0.41,0.4,0.53,0.65s0.17,0.54,0.15,0.86c-0.03,0.31-0.15,0.63-0.36,0.94C195.15,147.36,194.75,147.83,194.31,148.25z"/>
	<path d="M205.72,180.45c-1.28-0.23-2.57-0.5-3.88-0.81c-1.31-0.31-2.61-0.65-3.89-1.01c-1.28-0.37-2.47-0.74-3.58-1.11
		c-0.35-0.12-0.72-0.19-1.12-0.23c-0.4-0.03-0.79-0.07-1.18-0.12c-0.39-0.05-0.76-0.14-1.11-0.27c-0.35-0.13-0.64-0.36-0.89-0.68
		c-0.13-0.18-0.23-0.46-0.28-0.83c-0.05-0.37-0.07-0.77-0.04-1.18c0.03-0.41,0.08-0.82,0.17-1.23c0.09-0.41,0.2-0.74,0.32-1.01
		c0.57-1.29,1.27-2.73,2.09-4.31c0.83-1.58,1.65-3.23,2.46-4.94c0.82-1.75,1.79-3.35,2.9-4.8c1.11-1.45,2.21-2.68,3.31-3.7
		c0.14-0.12,0.27-0.17,0.39-0.15c0.12,0.02,0.22,0.09,0.31,0.18c0.08,0.1,0.13,0.21,0.15,0.36c0.02,0.14-0.04,0.26-0.17,0.35
		c-0.53,0.5-1.01,1.07-1.46,1.71c-0.45,0.64-0.86,1.35-1.25,2.11c-0.39,0.76-0.77,1.55-1.15,2.37c-0.38,0.82-0.75,1.64-1.13,2.46
		c-0.81,1.72-1.46,3.43-1.94,5.15c-0.48,1.71-1.01,3.21-1.58,4.51c-0.03,0.09-0.1,0.18-0.22,0.28c-0.11,0.1-0.23,0.19-0.34,0.29
		c-0.11,0.1-0.2,0.19-0.27,0.29c-0.07,0.1-0.08,0.17-0.03,0.22c0.04,0.08,0.12,0.1,0.25,0.06c0.13-0.04,0.27-0.07,0.44-0.08
		c0.37,0.06,0.75,0.1,1.15,0.14c0.4,0.03,0.78,0.11,1.17,0.24c1.05,0.36,2.2,0.71,3.43,1.06c1.23,0.35,2.48,0.67,3.73,0.96
		c1.25,0.29,2.5,0.54,3.73,0.76c1.23,0.21,2.4,0.38,3.51,0.48c0.47,0.06,0.81,0.26,1.02,0.6c0.21,0.34,0.29,0.7,0.25,1.07
		s-0.21,0.71-0.51,0.99c-0.29,0.29-0.67,0.41-1.14,0.35C208.2,180.85,206.99,180.68,205.72,180.45z M207.02,167.43
		c-0.97-0.31-1.94-0.66-2.89-1.06c-0.96-0.39-1.94-0.8-2.94-1.22c-1-0.42-2.01-0.81-3.03-1.15c-0.23-0.08-0.38-0.21-0.44-0.38
		c-0.06-0.17-0.05-0.35,0.01-0.53s0.17-0.32,0.32-0.42c0.15-0.1,0.34-0.11,0.57-0.04c1.96,0.66,3.94,1.09,5.95,1.28
		c2.01,0.19,3.92,0.38,5.75,0.55c0.57,0.06,0.97,0.29,1.21,0.69c0.24,0.4,0.33,0.83,0.27,1.28c-0.06,0.46-0.25,0.85-0.58,1.2
		c-0.33,0.34-0.78,0.49-1.34,0.43C208.94,167.96,207.99,167.74,207.02,167.43z M219.9,157.25c0.04,0.57-0.11,1.05-0.44,1.45
		c-0.33,0.39-0.8,0.58-1.41,0.56c-0.61-0.02-1.34-0.48-2.18-1.37c-0.28-0.33-0.62-0.73-1.03-1.21s-0.8-0.78-1.18-0.91
		c-1.61-0.54-3.17-0.96-4.69-1.23c-1.52-0.28-3.21-0.48-5.06-0.6c-0.25-0.02-0.48-0.07-0.68-0.15c-0.2-0.08-0.39-0.18-0.57-0.27
		c-0.18-0.09-0.37-0.18-0.57-0.27c-0.2-0.08-0.43-0.14-0.68-0.16c-0.22-0.01-0.38-0.09-0.48-0.24c-0.1-0.15-0.13-0.31-0.1-0.49
		c0.03-0.18,0.09-0.33,0.21-0.46c0.11-0.13,0.28-0.19,0.5-0.19c0.51,0.04,0.88,0.06,1.12,0.08c0.24,0.01,0.61,0.04,1.12,0.08
		c1,0.03,1.97,0.05,2.92,0.05c0.95,0,1.86,0.01,2.75,0.04s1.77,0.1,2.64,0.21c0.88,0.11,1.74,0.31,2.59,0.6
		c0.91,0.31,1.56,0.58,1.95,0.81c0.39,0.23,0.7,0.47,0.91,0.71c0.21,0.24,0.41,0.48,0.58,0.73c0.18,0.25,0.52,0.54,1.02,0.88
		C219.61,156.23,219.87,156.68,219.9,157.25z"/>
	<path d="M229.92,158.5c-0.13,0.59-0.49,1.08-1.08,1.45c-0.53,0.32-1.07,0.47-1.62,0.47c-0.9-0.01-1.63-0.3-2.22-0.88
		c-0.58-0.58-0.87-1.33-0.86-2.26c0.01-1.02,0.36-1.72,1.06-2.08c0.7-0.36,1.46-0.46,2.29-0.29l0.14,0
		c0.28-0.09,0.56-0.13,0.86-0.11c0.29,0.02,0.56,0.1,0.81,0.25c0.25,0.15,0.44,0.36,0.6,0.63c0.15,0.27,0.23,0.6,0.22,0.99
		C230.11,157.29,230.05,157.91,229.92,158.5z M227.82,183.18c-0.42,0.25-0.84,0.34-1.28,0.25c-0.43-0.08-0.81-0.31-1.13-0.68
		s-0.43-0.86-0.33-1.47c0.16-1.12,0.34-2.41,0.54-3.88c0.2-1.47,0.38-2.93,0.55-4.39c0.17-1.45,0.32-2.83,0.45-4.12
		c0.13-1.3,0.24-2.31,0.33-3.05c0.08-0.74,0.13-1.13,0.13-1.2l1.62,0.5c0,0.06,0.02,0.49,0.06,1.27c0.04,0.79,0.08,1.87,0.11,3.24
		c0.04,1.38,0.06,2.8,0.08,4.27c0.02,1.47,0,2.93-0.06,4.37c-0.06,1.44-0.16,2.64-0.29,3.6C228.5,182.5,228.24,182.93,227.82,183.18
		z"/>
	<path d="M264.25,177.45c-0.97,0.39-1.82,0.67-2.54,0.84c-0.9,0.21-1.73,0.3-2.48,0.28c-0.75-0.02-1.49-0.1-2.22-0.25
		c-0.73-0.14-1.47-0.32-2.21-0.52c-0.75-0.21-1.53-0.38-2.35-0.51c-0.57-0.13-1.25-0.38-2.05-0.73c-0.8-0.36-1.64-0.63-2.54-0.82
		c-0.6-0.12-1.18-0.28-1.73-0.49c-0.55-0.2-1.06-0.33-1.52-0.39c-0.14,0.1-0.27,0.19-0.41,0.27s-0.28,0.17-0.41,0.27
		c-0.44,0.3-0.86,0.38-1.28,0.25c-0.41-0.13-0.73-0.37-0.95-0.72c-0.22-0.34-0.32-0.73-0.29-1.16c0.03-0.43,0.26-0.8,0.7-1.1
		c0.84-0.59,1.84-1.24,3-1.95s2.32-1.48,3.5-2.32c1.19-0.83,2.32-1.74,3.41-2.71c1.09-0.97,2.01-2.01,2.75-3.1
		c0.75-1.09,1.25-2.25,1.5-3.48c0.25-1.22,0.15-2.5-0.32-3.84c-0.18-0.52-0.48-0.99-0.88-1.42c-0.4-0.43-0.85-0.79-1.35-1.09
		c-0.5-0.29-1.03-0.5-1.59-0.62c-0.57-0.12-1.09-0.12-1.57-0.01c-1.8,0.42-3.37,1.08-4.7,1.98c-1.33,0.9-2.45,1.98-3.36,3.24
		c-0.91,1.26-1.63,2.69-2.17,4.27c-0.54,1.59-0.9,3.27-1.09,5.06c0.16,1.11,0.34,2.21,0.53,3.3c0.19,1.09,0.41,2.18,0.66,3.27
		c0.17,0.72,0.3,1.49,0.41,2.32c0.11,0.83,0.22,1.66,0.33,2.49c0.11,0.83,0.25,1.64,0.42,2.44c0.17,0.8,0.41,1.54,0.74,2.22
		c0.12,0.24,0.13,0.45,0.02,0.63c-0.1,0.19-0.25,0.32-0.42,0.39c-0.18,0.07-0.37,0.09-0.58,0.04c-0.21-0.05-0.36-0.2-0.45-0.44
		c-0.68-1.52-1.3-3.07-1.86-4.64c-0.56-1.58-1.03-3.18-1.41-4.8c-0.39-1.68-0.81-3.33-1.27-4.95s-0.76-3.3-0.9-5.04
		c-0.05-0.48,0.05-0.87,0.29-1.18c0.24-0.3,0.53-0.5,0.87-0.6c0.34-0.1,0.69-0.09,1.05,0c0.36,0.1,0.66,0.3,0.89,0.61
		c0.29-1.61,0.71-3.1,1.24-4.48c0.54-1.37,1.25-2.6,2.14-3.68c0.89-1.08,2-2.01,3.32-2.79c1.32-0.78,2.92-1.39,4.78-1.82
		c0.78-0.18,1.62-0.21,2.52-0.09c0.9,0.12,1.76,0.36,2.57,0.73c0.81,0.37,1.55,0.86,2.22,1.46c0.66,0.6,1.14,1.31,1.42,2.13
		c0.48,1.4,0.68,2.74,0.6,4.03c-0.08,1.28-0.38,2.51-0.88,3.68c-0.51,1.17-1.16,2.27-1.97,3.31c-0.8,1.04-1.67,2.01-2.6,2.92
		c-0.93,0.91-1.87,1.72-2.81,2.43c-0.94,0.71-1.82,1.33-2.62,1.84c-0.17,0.1-0.32,0.21-0.47,0.31c-0.15,0.1-0.31,0.2-0.48,0.31
		c0.16,0.03,0.32,0.05,0.47,0.06c0.15,0.01,0.3,0.04,0.47,0.06c0.87,0.19,1.71,0.31,2.53,0.35c0.82,0.04,1.51,0.11,2.07,0.21
		c0.66,0.11,1.34,0.33,2.03,0.66c0.7,0.33,1.39,0.65,2.1,0.94c0.7,0.3,1.4,0.54,2.09,0.72c0.69,0.18,1.37,0.2,2.03,0.05
		c0.6-0.14,1.29-0.37,2.08-0.68s1.42-0.63,1.92-0.94c0.5-0.31,0.96-0.46,1.37-0.44c0.42,0.02,0.72,0.14,0.92,0.36
		s0.25,0.49,0.17,0.82c-0.08,0.33-0.37,0.65-0.87,0.96C266.07,176.63,265.22,177.06,264.25,177.45z"/>
	<path d="M298.91,150.93c1.02,1.11,2.04,2.29,3.08,3.55c1.04,1.26,2.13,2.66,3.29,4.19c0.1,0.13,0.13,0.26,0.12,0.4
		c-0.02,0.13-0.08,0.24-0.18,0.33c-0.1,0.08-0.22,0.12-0.35,0.12c-0.14,0-0.26-0.09-0.38-0.24c-0.91-1.16-1.96-2.34-3.15-3.54
		c-1.2-1.2-2.5-2.4-3.9-3.6c-0.61,0.58-1.18,1.16-1.71,1.73c-0.53,0.58-1.05,1.15-1.56,1.72c-1.07,1.19-2.04,2.45-2.91,3.78
		c-0.87,1.33-1.86,2.61-2.97,3.86c-0.38,0.43-0.79,0.63-1.23,0.59c-0.45-0.03-0.83-0.2-1.14-0.49c-0.31-0.29-0.51-0.67-0.6-1.12
		c-0.08-0.46,0.07-0.89,0.46-1.29c1.11-1.25,2.21-2.44,3.28-3.59c1.08-1.14,2.16-2.3,3.24-3.46c1.1-1.21,2.25-2.23,3.46-3.06
		c-2.31-1.87-4.69-3.62-7.13-5.27c-2.44-1.64-4.71-3.08-6.81-4.3c-0.26-0.12-0.47-0.34-0.63-0.66c-0.75,0.65-1.35,1.59-1.8,2.82
		c-0.45,1.23-0.79,2.53-1.02,3.91c-0.23,1.37-0.38,2.71-0.46,4.01c-0.08,1.3-0.1,2.33-0.07,3.1c0.03,2.97,0.29,5.86,0.77,8.67
		c0.48,2.81,1.16,5.74,2.02,8.81c0.12,0.47,0.08,0.87-0.15,1.19c-0.22,0.32-0.51,0.53-0.88,0.64c-0.36,0.1-0.72,0.07-1.07-0.09
		c-0.36-0.17-0.6-0.5-0.74-1c-0.91-3.22-1.57-6.29-1.98-9.2c-0.41-2.91-0.63-5.94-0.64-9.1c-0.01-0.6,0.03-1.35,0.14-2.26
		c0.11-0.91,0.29-1.87,0.53-2.89c0.24-1.02,0.53-2.07,0.87-3.14c0.34-1.07,0.74-2.07,1.2-3s0.97-1.76,1.53-2.47s1.19-1.24,1.89-1.58
		l0.08-0.04c0.18-0.26,0.43-0.43,0.74-0.49c0.31-0.06,0.66,0.01,1.03,0.22c1.59,0.94,3.05,1.83,4.38,2.68
		c1.34,0.85,2.58,1.71,3.75,2.59c1.16,0.88,2.26,1.78,3.29,2.7c1.03,0.92,2.05,1.91,3.07,2.94c0.9-0.54,1.88-1.07,2.94-1.58
		c0.22-0.11,0.43-0.11,0.62,0s0.32,0.24,0.41,0.42c0.08,0.17,0.11,0.37,0.07,0.58c-0.03,0.21-0.16,0.37-0.39,0.48
		C300.47,149.86,299.66,150.36,298.91,150.93z"/>
</g>
<path class="st4" d="M217.41,218.12"/>
<rect x="458.82" y="156.71" class="st3" width="165.88" height="8.47"/>
</svg>
