<?xml version="1.0" encoding="utf-8"?>
<!-- Generator: Adobe Illustrator 28.1.0, SVG Export Plug-In . SVG Version: 6.00 Build 0)  -->
<svg version="1.1" id="Camada_1" xmlns="http://www.w3.org/2000/svg" xmlns:xlink="http://www.w3.org/1999/xlink" x="0px" y="0px"
	 viewBox="0 0 393.18 238.59" style="enable-background:new 0 0 393.18 238.59;" xml:space="preserve">
<style type="text/css">
	.st0{fill:#1C1570;}
	.st1{fill:#0DA2D4;}
	.st2{fill:none;stroke:#0DA2D4;stroke-miterlimit:10;}
	.st3{fill:none;}
	.st4{fill:none;stroke:#000000;stroke-miterlimit:10;}
</style>
<g>
	<path class="st0" d="M321.52,65.67C317.54,47.12,310.3,29,297.8,14.64c0,0,2.71,0.34,2.71,0.34c-7.27,5.64-12.42,13.68-13.35,22.84
		c-0.83,6.76,0.11,13.9,1.54,20.63c1.43,6.59,4.01,14.04,2.67,20.92c-0.22,1.18-0.51,2.9-0.94,4.01
		c-4.72,15.76-22.22,22.91-37.49,21.69c-15.2-1.37-29.49-8.08-42.28-16.06c-20.45-12.93-36.84-31.48-57.71-43.73
		c-18.02-10.95-38.38-18.25-59.46-19.65c0,0-3.44-0.1-3.44-0.1s-3.45,0.08-3.45,0.08c-32.08,1.17-65.37,23.95-67.81,57.85
		c-1.46,18.9,4.84,39.34,22.09,49.31c-18.7-8.69-26.59-29.92-26.1-49.54c0.73-37.12,36.41-63.45,71.39-65.43
		c35.3-1.54,68.91,15.04,95.53,37.08c10.91,9.2,21.62,19.11,33.66,26.8c7.86,5.04,16.19,9.34,25.03,12.31
		c8.32,3.01,17.58,4.35,26.17,1.95c5.2-1.43,9.91-4.06,13.38-8.04c1.98-2.35,3.5-5.19,4.26-8.18c0.53-2.04,0.84-4.02,0.71-6.16
		c-0.19-5.38-2.32-12.16-2.99-17.57c-1.53-11.19-1.12-23.67,5.49-33.35c2.85-4.35,6.63-7.93,10.74-10.82
		c0.84-0.66,2.07-0.51,2.72,0.34C312.84,27.52,319.19,46.5,321.52,65.67L321.52,65.67z"/>
</g>
<g>
	<g>
		<path class="st0" d="M360.68,44.04c6.13,7.34,6.71,18.39,2.4,26.83c-4.03,8.38-11.79,14.85-19.79,18.89
			c-5.34,2.67-10.97,4.57-16.93,5.29c8.26-7.76,17.42-13.99,24.67-22.22C358.73,64.38,361.43,55.43,360.68,44.04L360.68,44.04z"/>
	</g>
	<g>
		<path class="st0" d="M360.68,44.04c-1.41,0.71,0.17-2.78,0.07-3.24c0.02-0.21-0.03-0.44-0.13-0.3c-0.13,0.12,0.06,0.75,0.28,0.9
			c-2.46-0.78-5.29-1.39-7.64-1.26c-11.63,0.52-20.9,13.56-29.82,20.75c1.13-10.02,6.33-19.06,14.87-24.84
			c6.95-4.68,16.77-4.95,23.03,1.03c0.7,0.72,1.42,1.35,2.03,2.16c1.14,2.18-1.24,3.5-2.63,4.47c-0.11,0.07-0.2,0.19-0.25,0.19
			C360.34,43.88,360.54,44.03,360.68,44.04L360.68,44.04z"/>
	</g>
</g>
<g>
	<path class="st1" d="M37.3,131.81c19.9-22.18,48.58-40.15,77.64-47.15c21.6-4.68,44.36-3.52,65.61,2.26
		c2.59,0.59,7.03,2.23,9.59,3.01c2.95,1.22,6.46,2.44,9.33,3.8c4.72,2.18,10.57,5.12,15.33,7.14c4.26,1.67,8.57,3.27,12.95,4.53
		c0.62,0.22,1.97,0.6,2.63,0.74c33.84,9.36,69.8-0.26,100.29-15.92c13.19-6.79,25.88-14.81,37.88-23.93l0.63,0.64
		c-22.82,25.4-54.78,44.89-88.75,50.69c-11.56,1.75-23.61,1.9-35.17-0.01c-15.55-2.22-30.32-8.68-43.01-17.12
		c-3.17-1.9-6.28-3.96-9.66-5.48c-0.8-0.4-2.97-1.47-3.75-1.86c-0.94-0.42-5.47-2.13-6.49-2.54c-1.49-0.63-3.76-1.2-5.32-1.67
		c-10.68-3.2-22.07-3.96-33.14-2.9c0,0-5.51,0.74-5.51,0.74S137,86.96,137,86.96c-1.98,0.38-4.82,0.96-6.8,1.34
		c-18.83,4.53-37.03,11.46-54.2,20.48c-13.16,6.87-25.83,14.87-38.08,23.68C37.92,132.46,37.3,131.81,37.3,131.81L37.3,131.81z"/>
</g>
<path class="st2" d="M53.65-140.47"/>
<path class="st2" d="M48-153.18"/>
<g>
	<path class="st3" d="M189.18-114.35"/>
</g>
<path class="st2" d="M26.19-158.54"/>
<g>
	<path class="st1" d="M43.59,125.25C79,103.9,141.1,79.21,177.37,109.87c4.7,3.97,8.44,8.92,11.71,14.08
		c9.17,14.14,28.02,14.6,43.26,11.51c17.58-3.6,34.47-10.8,50.59-18.73c31.91-15.94,61.94-35.4,91.19-55.85
		c-36.39,31.91-115,89.46-164.65,83.57c-8.42-1.09-16.88-4.81-22.8-11.11c-2.85-2.86-4.87-6.52-7.17-9.79
		c-6.29-8.89-15.36-15.35-25.85-18.55C119.81,94.85,74.69,110.89,43.59,125.25L43.59,125.25z"/>
</g>
<path id="SVGID_x5F_1_x5F_" class="st3" d="M-21.43,211.53c0,0,98.6-120.64,199.61-44.93S456.26,27.06,456.26,27.06"/>
<text><textPath  xlink:href="#SVGID_x5F_1_x5F_" startOffset="34.082%">
<tspan  style="font-family:'AdAstra'; font-size:48px;">Praieira</tspan></textPath>
</text>
<path class="st4" d="M217.41,218.12"/>
<rect x="458.82" y="156.71" class="st3" width="165.88" height="8.47"/>
</svg>
